<?xml version="1.0" encoding="UTF-8"?>
<svg width="52.491mm" height="51.23mm" version="1.1" viewBox="0 0 52.491 51.23" xmlns="http://www.w3.org/2000/svg">
 <defs>
  <marker id="Arrow2Sstart-8-2-9-2-8" overflow="visible" orient="auto">
   <path transform="matrix(.3 0 0 .3 -.69 0)" d="m8.7186 4.0337-10.926-4.0177 10.926-4.0177c-1.7455 2.3721-1.7354 5.6175-6e-7 8.0354z" fill="#00d99b" fill-rule="evenodd" stroke="#00d99b" stroke-linejoin="round" stroke-width=".625"/>
  </marker>
 </defs>
 <g transform="translate(-115.66 -92.83)">
  <g transform="translate(-300.14 81.823)">
   <g transform="translate(70.379 -6.3982)">
    <g stroke="#00d99b">
     <path d="m371.67 25.385 15.813 15.813h-4.8606v14.977h-21.905v-14.977h-4.8606l15.813-15.813" fill="#00d99b" stroke-linecap="round" stroke-linejoin="round" stroke-width=".35659"/>
     <g transform="matrix(.90969 0 0 .90969 324.25 -218.58)" fill="#5dd95d">
      <path transform="matrix(.29085 0 0 .29085 .75929 242.84)" d="m176.5 123.69a17.977 17.977 0 0 0-10.641 3.5586 17.977 17.977 0 0 0-6.1582 20.568l16.895 39.35 16.893-39.35a17.977 17.977 0 0 0-6.1582-20.568 17.977 17.977 0 0 0-10.83-3.5586zm0.0957 11.652a6.3254 6.3254 0 0 1 6.3242 6.3262 6.3254 6.3254 0 0 1-6.3242 6.3242 6.3254 6.3254 0 0 1-6.3262-6.3242 6.3254 6.3254 0 0 1 6.3262-6.3262z" fill="#fff" stroke="#00d99b" stroke-width="1.8194"/>
     </g>
     <path d="m362.06 66.453c-1.2253-0.65586-2.6645-1.2656-3.876-2.0516-1.2115-0.78603-2.3401-1.6695-3.3784-2.6361-1.0382-0.96665-1.9862-2.0165-2.8364-3.1353-0.85018-1.1188-1.6026-2.3066-2.2499-3.5492-0.64728-1.2426-1.1894-2.54-1.619-3.8779-0.42959-1.3379-0.74663-2.7164-0.94371-4.1212-0.19709-1.4048-0.27422-2.836-0.22399-4.2793 0.0502-1.4433 0.22782-2.8988 0.54017-4.3521 2.4988-11.627 12.916-19.832 24.804-19.537s21.886 9.0052 23.806 20.742c1.9198 11.736-4.7811 23.178-15.956 27.246" fill="none" marker-start="url(#Arrow2Sstart-8-2-9-2-8)" stroke-linecap="round" stroke-linejoin="round" stroke-width="3" style="paint-order:normal"/>
    </g>
   </g>
  </g>
 </g>
</svg>
